#!OML:ASF I:\golf\golf\golf 2\Subject 1\2002-09-07\Subject1.ASF
:FULLY-SPECIFIED
:DEGREES
18
root 0.0883082 17.8834 -9.61274 8.10266 -1.03291 -6.01011
lowerback -9.01207 0.0665023 -0.595568
upperback -0.744434 -0.0609551 4.59662
thorax 4.29207 -0.0822974 5.13959
lowerneck -19.2787 -1.27253 -0.379862
upperneck 37.8805 -0.14841 -4.07265
head 17.0479 -0.719521 -1.79785
rclavicle -1.42131e-014 -5.84427e-014
rhumerus -29.0623 -0.388008 -83.8162
rradius 26.4553
rwrist -8.03291
rhand -19.438 11.413
rfingers 7.12502
rthumb 6.88232 -18.4551
lclavicle -1.42131e-014 -5.84427e-014
lhumerus -26.1901 -1.71408 90.384
lradius 22.7885
lwrist -1.7373
lhand -8.30249 31.256
lfingers 7.12502
lthumb 17.6178 60.4778
rfemur -15.6662 2.6321 23.0404
rtibia 30.0875
rfoot -17.1281 -4.81789
rtoes 5.62226
lfemur -14.3701 1.70309 -10.9022
ltibia 31.6571
lfoot -20.2444 1.76572
ltoes -8.22501
19
root 0.0846047 17.8812 -9.61488 7.89673 -0.942575 -6.11721
lowerback -8.78817 0.059889 -0.529822
upperback -0.711189 -0.0744527 4.6287
thorax 4.20267 -0.0871645 5.13142
lowerneck -19.2019 -1.26364 -0.372061
upperneck 37.9217 -0.1359 -4.07619
head 17.051 -0.71323 -1.79853
rclavicle -9.49197e-015 -2.0276e-014
rhumerus -29.1394 -0.216371 -83.8984
rradius 26.5897
rwrist -8.29655
rhand -19.557 11.2801
rfingers 7.12502
rthumb 6.76747 -18.5917
lclavicle -9.49197e-015 -2.0276e-014
lhumerus -26.2031 -1.6578 90.3593
lradius 22.7413
lwrist -1.83815
lhand -8.33314 31.1303
lfingers 7.12502
lthumb 17.5883 60.3548
rfemur -15.3974 2.71762 23.2117
rtibia 30.031
rfoot -17.031 -5.01346
rtoes 5.56876
lfemur -14.1952 1.68873 -10.7379
ltibia 31.6982
lfoot -20.276 1.64431
ltoes -8.0442
20
root 0.082956 17.8797 -9.61965 7.80448 -0.877575 -6.19113
lowerback -8.63005 0.0520405 -0.479217
upperback -0.736454 -0.0865219 4.65048
thorax 4.08881 -0.0904142 5.12134
lowerneck -19.0847 -1.24827 -0.340104
upperneck 37.9858 -0.105967 -4.1219
head 17.0567 -0.702361 -1.81935
rclavicle 2.23633e-016 -2.42517e-014
rhumerus -29.2417 -0.0919309 -83.9535
rradius 26.6745
rwrist -8.46975
rhand -19.7051 11.237
rfingers 7.12502
rthumb 6.62453 -18.6393
lclavicle 2.23633e-016 -2.42517e-014
lhumerus -26.2716 -1.69972 90.3617
lradius 22.7268
lwrist -1.7494
lhand -8.48213 30.9551
lfingers 7.12502
lthumb 17.4449 60.1923
rfemur -15.2699 2.76863 23.3194
rtibia 29.9665
rfoot -16.9565 -5.05892
rtoes 5.55074
lfemur -14.1601 1.69244 -10.6295
ltibia 31.754
lfoot -20.3043 1.56071
ltoes -7.98463
21
root 0.0834091 17.878 -9.62436 7.80779 -0.845133 -6.20023
lowerback -8.6049 0.0423578 -0.485444
upperback -0.732876 -0.0991875 4.66764
thorax 4.07972 -0.0968971 5.14132
lowerneck -19.0636 -1.23506 -0.339306
upperneck 38.012 -0.0719565 -4.15392
head 17.0669 -0.692866 -1.82791
rclavicle -4.00054e-015 2.18663e-014
rhumerus -29.2369 -0.0585926 -83.945
rradius 26.7127
rwrist -8.48715
rhand -19.7267 11.1647
rfingers 7.12502
rthumb 6.60369 -18.7123
lclavicle -4.00054e-015 2.18663e-014
lhumerus -26.2764 -1.6373 90.3711
lradius 22.7447
lwrist -1.67738
lhand -8.70322 30.7518
lfingers 7.12502
lthumb 17.2321 60.0077
rfemur -15.271 2.67781 23.3245
rtibia 29.917
rfoot -16.9683 -4.96097
rtoes 5.41997
lfemur -14.2108 1.71199 -10.614
ltibia 31.8036
lfoot -20.3194 1.49886
ltoes -7.80177
22
root 0.0833663 17.8775 -9.62878 7.83279 -0.81393 -6.28368
lowerback -8.63781 0.0589539 -0.411529
upperback -0.700699 -0.0869255 4.68738
thorax 4.13058 -0.0908042 5.12242
lowerneck -19.0826 -1.22721 -0.307317
upperneck 38.0089 -0.0598494 -4.18167
head 17.0703 -0.687035 -1.84388
rclavicle -1.22004e-014 4.09496e-014
rhumerus -29.1709 -0.0926016 -83.9468
rradius 26.7313
rwrist -8.49536
rhand -19.7 11.0261
rfingers 7.12502
rthumb 6.62943 -18.8501
lclavicle -1.22004e-014 4.09496e-014
lhumerus -26.2213 -1.59406 90.3532
lradius 22.7939
lwrist -1.80617
lhand -8.55633 30.8581
lfingers 7.12502
lthumb 17.3735 60.1016
rfemur -15.3041 2.61087 23.4202
rtibia 29.8939
rfoot -17.0686 -4.96675
rtoes 5.2483
lfemur -14.272 1.74002 -10.5118
ltibia 31.8286
lfoot -20.3395 1.44908
ltoes -7.75659
23
root 0.0832269 17.879 -9.63386 7.8661 -0.764399 -6.18599
lowerback -8.67788 0.0755478 -0.498112
upperback -0.679554 -0.0552536 4.62673
thorax 4.17209 -0.0768891 5.11234
lowerneck -19.0779 -1.2234 -0.214296
upperneck 38.0149 -0.0678112 -4.23348
head 17.0712 -0.683589 -1.88539
rclavicle -5.44173e-015 -1.07344e-014
rhumerus -29.1225 -0.143482 -83.985
rradius 26.7479
rwrist -8.52362
rhand -19.7376 10.9088
rfingers 7.12502
rthumb 6.59317 -18.9686
lclavicle -5.44173e-015 -1.07344e-014
lhumerus -26.1494 -1.6666 90.3188
lradius 22.8067
lwrist -1.90297
lhand -8.42717 30.8729
lfingers 7.12502
lthumb 17.4978 60.1054
rfemur -15.3521 2.61338 23.3036
rtibia 29.8911
rfoot -17.1492 -4.91961
rtoes 6.23379
lfemur -14.3476 1.72116 -10.6196
ltibia 31.834
lfoot -20.306 1.4607
ltoes -8.35583
24
root 0.0842015 17.8806 -9.63843 7.87728 -0.704752 -6.01342
lowerback -8.71785 0.0765134 -0.682763
upperback -0.643091 -0.0355712 4.57321
thorax 4.23074 -0.0713589 5.16484
lowerneck -19.0787 -1.21009 -0.114724
upperneck 38.0411 -0.0515151 -4.31315
head 17.0855 -0.673302 -1.93682
rclavicle -1.51573e-015 -2.3059e-014
rhumerus -29.0743 -0.168227 -83.9759
rradius 26.779
rwrist -8.53468
rhand -19.7499 10.7925
rfingers 7.12502
rthumb 6.58128 -19.0852
lclavicle -1.51573e-015 -2.3059e-014
lhumerus -26.0678 -1.68243 90.3189
lradius 22.7423
lwrist -1.77768
lhand -8.66545 30.5707
lfingers 7.12502
lthumb 17.2685 59.8235
rfemur -15.3768 2.55668 23.0976
rtibia 29.8936
rfoot -17.1227 -4.99723
rtoes 4.92225
lfemur -14.3964 1.67448 -10.8187
ltibia 31.8285
lfoot -20.24 1.47653
ltoes -8.79237
25
root 0.0855205 17.8786 -9.63985 7.82323 -0.695502 -5.96026
lowerback -8.70554 0.0942142 -0.735856
upperback -0.58918 -0.00730841 4.54947
thorax 4.27746 -0.0595392 5.17417
lowerneck -19.0949 -1.16998 -0.0320996
upperneck 38.0805 -0.0124366 -4.33061
head 17.1117 -0.64726 -1.95344
rclavicle -2.23633e-016 -3.61788e-014
rhumerus -29.0492 -0.199076 -83.9771
rradius 26.7963
rwrist -8.51896
rhand -19.7196 10.6939
rfingers 7.12502
rthumb 6.61047 -19.1829
lclavicle -2.23633e-016 -3.61788e-014
lhumerus -26.0369 -1.78823 90.3331
lradius 22.7272
lwrist -1.54403
lhand -8.77459 30.418
lfingers 7.12502
lthumb 17.1634 59.6799
rfemur -15.319 2.49039 23.0374
rtibia 29.8957
rfoot -17.0499 -5.25124
rtoes 1.17799
lfemur -14.3454 1.66724 -10.8828
ltibia 31.8192
lfoot -20.2453 1.46225
ltoes -8.47511
26
root 0.0857455 17.8781 -9.64105 7.7651 -0.700571 -5.90852
lowerback -8.61726 0.104821 -0.752367
upperback -0.580046 0.0118911 4.50109
thorax 4.23555 -0.0492704 5.13326
lowerneck -19.155 -1.15873 -0.0770148
upperneck 38.2198 -0.000349142 -4.26069
head 17.2034 -0.639036 -1.91782
rclavicle -1.76421e-015 -1.23246e-014
rhumerus -29.0937 -0.188171 -84.0448
rradius 26.7975
rwrist -8.50365
rhand -19.7278 10.7332
rfingers 7.12502
rthumb 6.60264 -19.1438
lclavicle -1.76421e-015 -1.23246e-014
lhumerus -26.0737 -1.93416 90.3145
lradius 22.7558
lwrist -1.42644
lhand -8.69728 30.5439
lfingers 7.12502
lthumb 17.2378 59.7994
rfemur -15.2525 2.46316 22.9874
rtibia 29.8909
rfoot -16.9627 -5.34808
rtoes -0.153222
lfemur -14.2714 1.68321 -10.9311
ltibia 31.8214
lfoot -20.3025 1.34626
ltoes -7.71976
27
root 0.0852138 17.8804 -9.64719 7.77492 -0.696378 -5.92683
lowerback -8.53385 0.104825 -0.708514
upperback -0.59637 0.010377 4.4855
thorax 4.17183 -0.047816 5.08979
lowerneck -19.0786 -1.18724 -0.0484953
upperneck 38.2899 -0.0370387 -4.30549
head 17.2205 -0.656082 -1.952
rclavicle 9.69075e-016 -4.09496e-014
rhumerus -29.0939 -0.154847 -84.1048
rradius 26.7697
rwrist -8.49451
rhand -19.7492 10.8906
rfingers 7.12502
rthumb 6.58189 -18.9871
lclavicle 9.69075e-016 -4.09496e-014
lhumerus -26.0542 -1.86945 90.2517
lradius 22.722
lwrist -1.51087
lhand -8.6257 30.6338
lfingers 7.12502
lthumb 17.3067 59.8832
rfemur -15.2876 2.58334 23.0096
rtibia 29.8984
rfoot -16.9031 -5.40887
rtoes 0.303529
lfemur -14.292 1.73101 -10.8948
ltibia 31.823
lfoot -20.3133 1.1912
ltoes -7.56662
28
root 0.0841557 17.8801 -9.65489 7.81213 -0.72142 -6.01586
lowerback -8.5646 0.133731 -0.619032
upperback -0.543678 0.037404 4.49728
thorax 4.24165 -0.0345812 5.05567
lowerneck -19.1418 -1.19411 -0.0878137
upperneck 38.3528 -0.0525331 -4.24814
head 17.2707 -0.659991 -1.92548
rclavicle 6.18717e-015 -3.53837e-014
rhumerus -28.9492 -0.204197 -84.1212
rradius 26.7038
rwrist -8.49256
rhand -19.7263 10.9038
rfingers 7.12502
rthumb 6.60404 -18.9732
lclavicle 6.18717e-015 -3.53837e-014
lhumerus -25.9173 -1.84711 90.2146
lradius 22.6975
lwrist -1.54762
lhand -8.50084 30.7119
lfingers 7.12502
lthumb 17.4269 59.9508
rfemur -15.3792 2.78803 23.1008
rtibia 29.9339
rfoot -16.9158 -5.48307
rtoes 0.368751
lfemur -14.3651 1.78669 -10.7959
ltibia 31.8105
lfoot -20.2512 1.21672
ltoes -8.25917
29
root 0.0837213 17.879 -9.65974 7.83606 -0.734959 -5.97993
lowerback -8.65237 0.157381 -0.687899
upperback -0.459368 0.0711276 4.49762
thorax 4.37584 -0.022378 5.1025
lowerneck -19.2649 -1.21609 -0.159382
upperneck 38.4508 -0.0718169 -4.20068
head 17.356 -0.671776 -1.90079
rclavicle -1.39646e-014 -5.00937e-014
rhumerus -28.8175 -0.226138 -84.0904
rradius 26.6887
rwrist -8.53508
rhand -19.6937 10.8305
rfingers 7.12502
rthumb 6.63555 -19.0456
lclavicle -1.39646e-014 -5.00937e-014
lhumerus -25.8145 -2.00618 90.2693
lradius 22.7692
lwrist -1.40042
lhand -8.34931 30.8397
lfingers 7.12502
lthumb 17.5727 60.0656
rfemur -15.4429 2.79715 23.0538
rtibia 29.9782
rfoot -17.0335 -5.41429
rtoes 0.628116
lfemur -14.4069 1.80692 -10.8427
ltibia 31.7969
lfoot -20.2295 1.26395
ltoes -8.38718
30
root 0.0856568 17.8777 -9.66435 7.8211 -0.767592 -5.94762
lowerback -8.59439 0.174595 -0.724545
upperback -0.437354 0.097836 4.50081
thorax 4.36375 -0.00997165 5.12953
lowerneck -19.2859 -1.23275 -0.194928
upperneck 38.5595 -0.0602285 -4.24634
head 17.4226 -0.679065 -1.91773
rclavicle 4.47266e-016 -3.18055e-014
rhumerus -28.8331 -0.159317 -84.0769
rradius 26.7155
rwrist -8.55617
rhand -19.6763 10.9264
rfingers 7.12502
rthumb 6.65234 -18.9491
lclavicle 4.47266e-016 -3.18055e-014
lhumerus -25.821 -2.10054 90.3065
lradius 22.8287
lwrist -1.31022
lhand -8.24943 30.9122
lfingers 7.12502
lthumb 17.6688 60.1294
rfemur -15.4524 2.71039 23.0042
rtibia 30.0117
rfoot -17.1203 -5.28694
rtoes 1.31423
lfemur -14.3874 1.84129 -10.8928
ltibia 31.797
lfoot -20.2722 1.24106
ltoes -7.85718
31
root 0.0873738 17.8766 -9.66965 7.79003 -0.801584 -5.98349
lowerback -8.49901 0.204396 -0.64851
upperback -0.428003 0.132455 4.48289
thorax 4.31684 0.00958442 5.06961
lowerneck -19.2295 -1.22072 -0.191847
upperneck 38.5985 -0.0484735 -4.23086
head 17.4299 -0.671114 -1.90934
rclavicle 2.11954e-014 -7.55382e-015
rhumerus -28.8685 -0.151799 -84.1231
rradius 26.7153
rwrist -8.45427
rhand -19.6778 11.057
rfingers 7.12502
rthumb 6.65082 -18.8185
lclavicle 2.11954e-014 -7.55382e-015
lhumerus -25.7938 -2.05796 90.244
lradius 22.7825
lwrist -1.39069
lhand -8.27432 31.039
lfingers 7.12502
lthumb 17.6449 60.2584
rfemur -15.4437 2.71381 23.0336
rtibia 30.0272
rfoot -17.0589 -5.28698
rtoes 1.45651
lfemur -14.3716 1.87049 -10.8649
ltibia 31.8132
lfoot -20.2862 1.24384
ltoes -7.6783
